<svg width="112" height="72" viewBox="0 0 112 72" fill="none" xmlns="http://www.w3.org/2000/svg">
<path fill-rule="evenodd" clip-rule="evenodd" d="M78.4812 35.8528L78.4813 35.8683L78.4823 35.8838C78.486 35.9374 78.4891 35.9909 78.4915 36.0445C78.513 36.5253 78.4931 36.9759 78.4395 37.4053L78.4376 37.4205L78.4366 37.4358C77.697 49.1933 67.9341 58.5 56.0002 58.5C43.7184 58.5 33.7361 48.6427 33.5224 36.4011L33.5222 36.3897L33.5214 36.3782C33.5043 36.108 33.4973 35.8361 33.5009 35.5631C33.5064 35.1482 33.5329 34.7388 33.5793 34.3313L33.5804 34.3215L33.5812 34.3117C34.4435 22.6737 44.152 13.5 56.0002 13.5C68.3669 13.5 78.4021 23.4938 78.4812 35.8528ZM74.069 44.3759L74.5566 43.3241L73.457 43.6914C72.8584 43.8913 72.2189 44.018 71.5456 44.0604C68.6099 44.2455 65.4635 42.8536 63.4651 40.8273C58.091 35.3783 54.7249 32.482 51.6695 30.3039C49.7558 28.9397 47.1737 27.9048 44.6945 27.6435C42.2028 27.3808 40.0386 27.912 38.6512 29.3682C37.9015 30.1551 37.3481 30.8745 36.9476 31.6745C36.5462 32.4765 36.3111 33.334 36.1662 34.3828C36.1585 34.4382 36.1513 34.4937 36.1446 34.5491L36.143 34.5616L36.1422 34.5741C36.1089 35.0452 36.0919 35.5206 36.0919 36C36.0919 36.0888 36.0925 36.1775 36.0937 36.2661L36.0939 36.2812L36.095 36.2963C36.3999 40.4327 39.851 44.1237 44.0077 44.5704C48.7131 45.0762 53.0441 42.6443 57.0186 38.7729L58.8384 40.5942C54.638 44.6926 49.5749 47.7596 43.733 47.1317C42.3475 46.9828 41.0262 46.563 39.8198 45.9286L38.1658 45.0587L39.1644 46.6383C42.6914 52.2175 48.9131 55.924 56.0002 55.924C64.0069 55.924 70.9083 51.1938 74.069 44.3759ZM75.8714 37.1958L75.8746 37.1739L75.8758 37.1518C75.8976 36.7706 75.9086 36.3863 75.9086 35.9997V35.969L75.9065 35.9465C75.6742 33.3789 73.3394 31.4252 71.075 31.8339C69.3718 32.1414 67.4339 33.0866 65.399 35.0174L63.5787 33.1956C65.9174 30.962 68.3104 29.7155 70.6184 29.2988C71.8209 29.0818 72.9638 29.2245 73.989 29.6298L75.0373 30.0442L74.6409 28.989C71.8067 21.4452 64.5308 16.076 56.0002 16.076C49.1743 16.076 43.151 19.5145 39.5652 24.7527L38.733 25.9683L40.1332 25.5103C41.6694 25.0079 43.3461 24.9111 44.9639 25.0816C47.9074 25.3919 50.9071 26.5981 53.162 28.2056C56.3851 30.5032 59.8677 33.5135 65.296 39.0174C66.8417 40.5846 69.2853 41.6219 71.3838 41.4895C73.5816 41.351 75.2798 39.8496 75.7903 37.6266C75.8225 37.4863 75.8498 37.3431 75.8714 37.1958Z" fill="black"/>
</svg>
