<svg width="112" height="72" viewBox="0 0 112 72" fill="none" xmlns="http://www.w3.org/2000/svg">
<g clip-path="url(#clip0_12_58)">
<path d="M45.3483 49.1211L45.3537 49.1239C45.3464 49.1245 45.3399 49.1187 45.3483 49.1211ZM45.3569 49.1232L45.3537 49.1239L45.3569 49.1277L45.3604 49.1371L45.3679 49.1138L45.3604 49.1211L45.3569 49.1232ZM54.4226 40.7341C54.2893 42.1192 53.6768 43.4144 52.6909 44.3964C52.6475 44.4464 52.61 44.4889 52.5781 44.5264C52.0225 45.0768 51.4212 45.5791 50.7807 46.0279L50.778 46.0313L50.7495 46.0507C50.5084 46.2269 50.2583 46.3902 50 46.54L49.6973 46.7087C49.197 46.9489 48.6797 47.152 48.1497 47.3165L48.1112 47.3318C47.8712 47.4131 47.6231 47.468 47.3712 47.4954C47.1771 47.528 46.9811 47.5482 46.7844 47.5559C46.2437 47.599 45.7008 47.6084 45.159 47.584C44.051 47.426 43.0176 46.9334 42.1972 46.1721C41.6946 45.7858 41.2568 45.3217 40.9004 44.7975C40.6094 44.4076 40.3639 43.9857 40.1688 43.54C40.0884 43.3525 40.0202 43.16 39.9646 42.9637C39.8295 42.5328 39.7577 42.0845 39.7515 41.633C39.6861 40.9724 39.8207 40.3074 40.1378 39.7242C40.326 39.3883 40.5369 39.0656 40.7691 38.7584C40.7574 38.7566 40.7425 38.7513 40.731 38.7497C41.7217 37.3667 42.991 36.2064 44.4572 35.3435C45.9194 34.4216 47.6178 33.944 49.3463 33.9687C50.123 33.9842 51.4563 34.3635 53.1763 36.387C54.072 37.6531 54.5114 39.1857 54.4226 40.7341V40.7341ZM44.3333 43.8518C44.1731 43.4423 43.9671 43.0522 43.7192 42.6891C43.4713 42.3315 43.1819 42.0045 42.8571 41.715C42.3795 41.3436 41.6918 41.151 41.5418 41.6467C41.486 42.0318 41.5094 42.4242 41.6106 42.7999C41.7117 43.1756 41.8884 43.5267 42.13 43.8318C42.3316 44.1738 42.6012 44.471 42.9222 44.7048C43.2431 44.9386 43.6086 45.1042 43.996 45.1913C44.4734 45.23 44.57 44.4471 44.3333 43.8518V43.8518ZM51.878 37.1771L51.828 37.1086C51.6793 36.9065 51.4568 36.7715 51.209 36.733C50.9611 36.6945 50.7081 36.7557 50.5052 36.9031L48.2 38.5886C47.9979 38.7372 47.8629 38.9598 47.8244 39.2076C47.7859 39.4555 47.847 39.7085 47.9945 39.9114L48.0445 39.9798C48.1931 40.1818 48.4156 40.3169 48.6635 40.3554C48.9113 40.3939 49.1644 40.3327 49.3673 40.1853L51.6725 38.5C51.8746 38.3514 52.0097 38.1288 52.0482 37.8809C52.0867 37.633 52.0255 37.38 51.878 37.1771ZM45 57.5853C45.0244 57.9561 45.1842 58.3049 45.4489 58.5657C45.7135 58.8265 46.0648 58.981 46.4359 59H48.0575C48.4643 58.9511 48.8399 58.7575 49.1157 58.4546C49.3916 58.1516 49.5493 57.7596 49.56 57.35V48.2355C48.1032 48.7868 46.5576 49.0659 45 49.0592C44.9986 49.092 45 57.1706 45 57.5853V57.5853ZM66.6463 49.1239C66.6536 49.1245 66.6601 49.1187 66.6517 49.1211L66.6463 49.1239ZM66.6396 49.1211L66.6321 49.1138L66.6396 49.1371L66.6431 49.1277L66.6463 49.1239L66.6431 49.1232L66.6396 49.1211ZM72.2485 41.6326C72.2422 42.0841 72.1704 42.5324 72.0354 42.9633C71.9797 43.1596 71.9115 43.3521 71.8312 43.5396C71.6362 43.9852 71.3908 44.4072 71.1 44.7971C70.7435 45.3213 70.3058 45.7854 69.8032 46.1717C68.9827 46.933 67.9494 47.4256 66.8414 47.5836C66.2995 47.608 65.7567 47.5986 65.216 47.5555C65.0193 47.5478 64.8233 47.5276 64.6292 47.495C64.3773 47.4676 64.1291 47.4127 63.8892 47.3314L63.8507 47.3161C63.3206 47.1516 62.8034 46.9485 62.3031 46.7083L62 46.54C61.7418 46.3904 61.4916 46.2274 61.2507 46.0514L61.2222 46.032L61.2195 46.0286C60.579 45.5798 59.9777 45.0775 59.4221 44.5271C59.3902 44.4893 59.3527 44.4464 59.3093 44.3971C58.3233 43.4151 57.7109 42.1199 57.5776 40.7348C57.4887 39.1863 57.9283 37.6534 58.8242 36.3873C60.5442 34.3638 61.8772 33.9845 62.6542 33.969C64.3826 33.9443 66.081 34.4219 67.5433 35.3438C69.0094 36.2067 70.2787 37.367 71.2695 38.75C71.258 38.7516 71.2431 38.7569 71.2314 38.7587C71.4635 39.0659 71.6745 39.3886 71.8627 39.7245C72.1795 40.3075 72.3139 40.9723 72.2485 41.6326V41.6326ZM60.3275 38.5L62.6329 40.1855C62.8358 40.3329 63.0888 40.3941 63.3367 40.3556C63.5845 40.3171 63.8071 40.182 63.9557 39.98L64.0057 39.9116C64.1531 39.7086 64.2143 39.4555 64.1757 39.2077C64.1372 38.9598 64.0021 38.7372 63.8 38.5886L61.4945 36.9031C61.2915 36.7557 61.0385 36.6945 60.7907 36.733C60.5428 36.7715 60.3203 36.9065 60.1717 37.1086L60.1217 37.1771C59.9742 37.38 59.913 37.6331 59.9516 37.881C59.9902 38.1289 60.1253 38.3514 60.3275 38.5ZM70.4582 41.6469C70.3082 41.1512 69.6205 41.3438 69.1429 41.7152C68.818 42.0047 68.5287 42.3317 68.2808 42.6893C68.0329 43.0524 67.8268 43.4425 67.6667 43.852C67.4302 44.4473 67.5267 45.2305 68.004 45.192C68.3914 45.1048 68.7569 44.9391 69.0779 44.7052C69.3988 44.4712 69.6684 44.174 69.87 43.8318C70.1115 43.5267 70.2882 43.1756 70.3894 42.7999C70.4905 42.4242 70.5139 42.0318 70.4582 41.6467V41.6469ZM67 49.0592C65.4424 49.0659 63.8968 48.7868 62.44 48.2355V57.35C62.4507 57.7596 62.6084 58.1516 62.8842 58.4546C63.1601 58.7575 63.5357 58.9511 63.9425 59H65.5641C65.9276 58.9599 66.267 58.7985 66.5275 58.5418C66.788 58.2851 66.9545 57.9482 67 57.5853V49.0592Z" fill="#1D1D1F"/>
</g>
<defs>
<clipPath id="clip0_12_58">
<rect width="34" height="54" fill="white" transform="translate(39 9)"/>
</clipPath>
</defs>
</svg>
