<svg width="112" height="72" viewBox="0 0 112 72" fill="none" xmlns="http://www.w3.org/2000/svg">
<path d="M55.9699 59.9997C55.6214 60.0032 55.2782 59.9133 54.9761 59.7394C54.6741 59.5654 54.4241 59.3136 54.2523 59.0103L51.14 54.6734C51.049 54.5239 50.9682 54.4741 50.8721 54.4741H43.9467C41.8967 54.4741 39.9308 53.6598 38.4813 52.2103C37.0317 50.7608 36.2174 48.7948 36.2174 46.7449V22.7292C36.2174 20.6793 37.0317 18.7134 38.4813 17.2638C39.9308 15.8143 41.8967 15 43.9467 15H67.9932C70.0431 15 72.0091 15.8143 73.4586 17.2638C74.9081 18.7134 75.7225 20.6793 75.7225 22.7292V46.7449C75.7225 48.7948 74.9081 50.7608 73.4586 52.2103C72.0091 53.6598 70.0431 54.4741 67.9932 54.4741H61.0609C61.0161 54.4741 60.972 54.4858 60.9332 54.5081C60.8943 54.5304 60.8619 54.5625 60.8394 54.6012L57.6326 59.0825C57.46 59.3675 57.2156 59.6023 56.9238 59.7633C56.632 59.9242 56.3031 60.0057 55.9699 59.9997V59.9997ZM43.9467 16.6867C42.3496 16.6953 40.8208 17.3357 39.6944 18.4679C38.568 19.6001 37.9354 21.1321 37.935 22.7292V46.7449C37.935 48.3393 38.5684 49.8684 39.6958 50.9958C40.8232 52.1232 42.3523 52.7565 43.9467 52.7565H50.8789C51.227 52.7556 51.5691 52.8467 51.8707 53.0204C52.1723 53.1941 52.4227 53.4444 52.5965 53.7459L55.702 58.0811C55.9218 58.447 56.0644 58.3731 56.1898 58.1533L59.3983 53.6703C59.5734 53.3879 59.8185 53.1554 60.1097 52.9953C60.401 52.8352 60.7286 52.753 61.0609 52.7565H67.9932C69.5876 52.7565 71.1167 52.1232 72.2441 50.9958C73.3715 49.8684 74.0048 48.3393 74.0048 46.7449V22.7292C74.0044 21.1321 73.3719 19.6001 72.2455 18.4679C71.119 17.3357 69.5903 16.6953 67.9932 16.6867H43.9467Z" fill="black"/>
<path d="M62.5829 29.8006C62.021 30.1577 61.5574 30.6496 61.234 31.2316C60.9107 31.8135 60.7378 32.467 60.7313 33.1327C60.7277 33.8837 60.9464 34.619 61.36 35.2459C61.7735 35.8728 62.3634 36.3633 63.0552 36.6555C62.8022 37.5439 62.3997 38.3827 61.8649 39.1358C61.128 40.1955 60.3191 41.2759 59.1442 41.2759C57.9694 41.2759 57.6705 40.5751 56.2913 40.5751C54.9687 40.5751 54.4964 41.2948 53.4194 41.2948C52.3425 41.2948 51.5678 40.3106 50.6987 39.0791C49.5578 37.365 48.9287 35.3614 48.8849 33.3028C48.8133 32.6723 48.871 32.0339 49.0543 31.4265C49.2376 30.819 49.5428 30.2553 49.9513 29.7697C50.3597 29.2842 50.8628 28.8869 51.4298 28.6022C51.9969 28.3175 52.616 28.1513 53.2494 28.1139C54.4208 28.1139 55.3655 28.8713 56.0834 28.8713C56.8014 28.8713 57.8405 28.0761 59.1442 28.0761C59.8157 28.0544 60.4819 28.2007 61.0824 28.5019C61.6829 28.8031 62.1987 29.2495 62.5829 29.8006V29.8006ZM56.1779 27.8871C56.0834 27.8871 56.0061 27.8682 55.9323 27.8682C55.9323 27.8116 55.9134 27.6793 55.9134 27.547C55.9582 26.672 56.2978 25.8378 56.877 25.1802C57.5181 24.4179 58.4354 23.9411 59.4276 23.8542C59.4446 23.9679 59.4509 24.0829 59.4465 24.1977C59.4268 25.0888 59.11 25.9479 58.5465 26.6384C58.2576 26.997 57.8985 27.2927 57.4912 27.5074C57.0839 27.7222 56.637 27.8514 56.1779 27.8871V27.8871Z" fill="black"/>
</svg>
