<svg width="112" height="72" viewBox="0 0 112 72" fill="none" xmlns="http://www.w3.org/2000/svg">
<g clip-path="url(#clip0_12_26)">
<path d="M50.1251 18.2354H50.7501C50.9133 18.2344 51.075 18.2656 51.2262 18.3271C51.3773 18.3887 51.5149 18.4794 51.6309 18.5941C51.747 18.7088 51.8393 18.8453 51.9027 18.9957C51.966 19.1461 51.9991 19.3075 52.0001 19.4707V39.2353C52.0001 40.5614 52.5269 41.8332 53.4645 42.7709C54.4022 43.7086 55.674 44.2353 57.0001 44.2353C58.3262 44.2353 59.5979 43.7086 60.5356 42.7709C61.4733 41.8332 62.0001 40.5614 62.0001 39.2353V19.4707C62.0001 18.7884 62.0001 18.2354 63.2501 18.2354H63.8751C63.9568 18.2364 64.038 18.2212 64.1139 18.1906C64.1897 18.16 64.2587 18.1147 64.3169 18.0572C64.3751 17.9998 64.4213 17.9314 64.4529 17.8559C64.4844 17.7804 64.5006 17.6995 64.5006 17.6177C64.5006 17.5359 64.4844 17.455 64.4529 17.3795C64.4213 17.304 64.3751 17.2356 64.3169 17.1782C64.2587 17.1207 64.1897 17.0754 64.1139 17.0448C64.038 17.0142 63.9568 16.999 63.8751 17.0001H50.1251C50.0433 16.999 49.9621 17.0142 49.8863 17.0448C49.8104 17.0754 49.7414 17.1207 49.6832 17.1782C49.625 17.2356 49.5788 17.304 49.5473 17.3795C49.5157 17.455 49.4995 17.5359 49.4995 17.6177C49.4995 17.6995 49.5157 17.7804 49.5473 17.8559C49.5788 17.9314 49.625 17.9998 49.6832 18.0572C49.7414 18.1147 49.8104 18.16 49.8863 18.1906C49.9621 18.2212 50.0433 18.2364 50.1251 18.2354V18.2354ZM57.0001 24.4119C57.2438 24.4147 57.4812 24.4896 57.6824 24.6271C57.8836 24.7646 58.0397 24.9585 58.131 25.1845C58.2222 25.4105 58.2446 25.6584 58.1953 25.8971C58.146 26.1358 58.0272 26.3546 57.8538 26.5259C57.6805 26.6972 57.4603 26.8134 57.2211 26.8599C56.9819 26.9064 56.7342 26.8811 56.5093 26.7871C56.2844 26.6932 56.0924 26.5348 55.9573 26.332C55.8222 26.1291 55.7501 25.8909 55.7501 25.6472C55.751 25.484 55.7841 25.3226 55.8475 25.1722C55.9108 25.0218 56.0031 24.8853 56.1192 24.7706C56.2353 24.6559 56.3728 24.5652 56.524 24.5036C56.6751 24.4421 56.8369 24.4109 57.0001 24.4119V24.4119ZM57.0001 29.3529C57.2438 29.3558 57.4812 29.4307 57.6824 29.5682C57.8836 29.7057 58.0397 29.8997 58.131 30.1256C58.2222 30.3516 58.2446 30.5995 58.1953 30.8382C58.146 31.0769 58.0272 31.2957 57.8538 31.467C57.6805 31.6383 57.4603 31.7545 57.2211 31.801C56.9819 31.8475 56.7342 31.8222 56.5093 31.7282C56.2844 31.6343 56.0924 31.4759 55.9573 31.2731C55.8222 31.0702 55.7501 30.832 55.7501 30.5882C55.752 30.2587 55.8848 29.9434 56.1192 29.7117C56.3537 29.4801 56.6705 29.351 57.0001 29.3529V29.3529ZM57.0001 34.2941C57.2438 34.297 57.4812 34.3719 57.6824 34.5094C57.8836 34.6469 58.0397 34.8409 58.131 35.0668C58.2222 35.2928 58.2446 35.5407 58.1953 35.7794C58.146 36.0181 58.0272 36.2369 57.8538 36.4082C57.6805 36.5795 57.4603 36.6957 57.2211 36.7422C56.9819 36.7887 56.7342 36.7634 56.5093 36.6694C56.2844 36.5755 56.0924 36.4171 55.9573 36.2143C55.8222 36.0114 55.7501 35.7732 55.7501 35.5294C55.752 35.1999 55.8848 34.8846 56.1192 34.6529C56.3537 34.4213 56.6705 34.2922 57.0001 34.2941V34.2941ZM63.8751 57.7648H63.2501C62.0001 57.7648 62.0001 57.2117 62.0001 56.5294V42.903C61.4195 43.6816 60.6652 44.3139 59.7971 44.7495C58.9291 45.185 57.9713 45.4118 57.0001 45.4118C56.0289 45.4118 55.0711 45.185 54.203 44.7495C53.335 44.3139 52.5806 43.6816 52.0001 42.903V56.5294C51.9991 56.6926 51.966 56.854 51.9027 57.0044C51.8393 57.1548 51.747 57.2913 51.6309 57.406C51.5149 57.5207 51.3773 57.6114 51.2262 57.673C51.075 57.7345 50.9133 57.7657 50.7501 57.7648H50.1251C50.0433 57.7637 49.9621 57.7789 49.8863 57.8095C49.8104 57.8401 49.7414 57.8854 49.6832 57.9428C49.625 58.0003 49.5788 58.0687 49.5473 58.1442C49.5157 58.2197 49.4995 58.3006 49.4995 58.3824C49.4995 58.4642 49.5157 58.5451 49.5473 58.6206C49.5788 58.6961 49.625 58.7645 49.6832 58.8219C49.7414 58.8794 49.8104 58.9247 49.8863 58.9553C49.9621 58.9859 50.0433 59.0011 50.1251 59H63.8751C63.9568 59.0011 64.038 58.9859 64.1139 58.9553C64.1897 58.9247 64.2587 58.8794 64.3169 58.8219C64.3751 58.7645 64.4213 58.6961 64.4529 58.6206C64.4844 58.5451 64.5006 58.4642 64.5006 58.3824C64.5006 58.3006 64.4844 58.2197 64.4529 58.1442C64.4213 58.0687 64.3751 58.0003 64.3169 57.9428C64.2587 57.8854 64.1897 57.8401 64.1139 57.8095C64.038 57.7789 63.9568 57.7637 63.8751 57.7648V57.7648Z" fill="#1D1D1F"/>
<path d="M87 31.9693V29.7256C86.9988 29.0572 86.8251 28.4004 86.4955 27.8188C86.166 27.2373 85.6918 26.7507 85.119 26.4062L85.1231 26.3907C84.5242 26.1295 84.0027 25.7181 83.6092 25.1965C83.2157 24.6748 82.9634 24.0605 82.8767 23.4128L82.44 19.627C82.3037 18.5884 82.1334 18.4351 80.5328 18.0945C79.0233 17.9068 77.5047 17.8026 75.9837 17.7824C74.4627 17.8026 72.9441 17.9068 71.4346 18.0945C69.834 18.4351 69.6637 18.5884 69.5275 19.627L69.0905 23.4128C69.011 24.0583 68.7652 24.6721 68.3773 25.1941C67.9893 25.7161 67.4725 26.1284 66.8773 26.3907L66.8807 26.4066C66.308 26.7511 65.8339 27.2376 65.5044 27.8191C65.1749 28.4006 65.0012 29.0573 65 29.7256V46.9334C65.0015 47.612 65.181 48.2783 65.5205 48.8659C65.86 49.4535 66.3476 49.9417 66.9348 50.2819L66.9323 50.2972C67.5259 50.5805 68.0364 51.0121 68.4144 51.5504C68.7924 52.0887 69.0251 52.7155 69.09 53.37L69.527 57.1557C69.6632 58.1944 69.8335 58.3477 71.4341 58.6882C72.9436 58.8758 74.4624 58.9799 75.9834 59C77.5044 58.9798 79.023 58.8756 80.5325 58.6878C82.1331 58.3473 82.3034 58.194 82.4397 57.1553L82.8767 53.3696C82.9603 52.7077 83.2102 52.0778 83.603 51.5386C83.9958 50.9993 84.5188 50.5684 85.1231 50.2858L85.1138 50.2558C85.688 49.9117 86.1635 49.4249 86.494 48.8428C86.8245 48.2606 86.9988 47.6029 87 46.9334V35.9693H88V31.9693H87ZM86 35.9693V46.9334C86 47.7015 85.6949 48.4382 85.1518 48.9814C84.6087 49.5246 83.8721 49.8298 83.104 49.83H68.8961C68.128 49.8299 67.3914 49.5246 66.8482 48.9814C66.3051 48.4382 66 47.7015 66 46.9334V29.7256C66.0106 28.9608 66.3191 28.2304 66.86 27.6896C67.4008 27.1488 68.1313 26.8404 68.8961 26.83H83.104C83.8688 26.8404 84.5993 27.1488 85.1401 27.6896C85.681 28.2304 85.9895 28.9609 86 29.7256V35.9693ZM81.3764 57.4241C81.0479 57.5452 80.7097 57.6378 80.3654 57.701C78.9112 57.8802 77.4484 57.98 75.9834 58C74.5184 57.98 73.0556 57.8802 71.6015 57.701C71.2572 57.6378 70.9189 57.5452 70.5904 57.4241C70.5573 57.2983 70.5339 57.17 70.5204 57.0406L70.0858 53.2778C69.9985 52.3846 69.6574 51.5351 69.1028 50.8295H82.9105C82.3381 51.52 81.9809 52.3633 81.8833 53.2549L81.4481 57.0249C81.4343 57.1596 81.4103 57.293 81.3764 57.4241V57.4241ZM70.5905 19.3583C70.919 19.2372 71.2573 19.1446 71.6016 19.0814C73.0557 18.9021 74.5184 18.8023 75.9834 18.7824C77.4484 18.8024 78.9112 18.9023 80.3654 19.0814C80.7097 19.1446 81.0479 19.2373 81.3764 19.3583C81.4096 19.4841 81.433 19.6123 81.4464 19.7417L81.8811 23.5046C81.9679 24.3592 82.3072 25.1685 82.8557 25.8295H69.1293C69.6662 25.1723 69.998 24.3718 70.0836 23.5275L70.5187 19.7575C70.5325 19.6228 70.5565 19.4894 70.5905 19.3583V19.3583Z" fill="#1D1D1F"/>
<path d="M36.7706 57.1008L36.7712 57.5281C36.7466 57.9784 36.5496 58.402 36.2212 58.711L35.8812 58.9959C35.2661 58.9922 34.7869 58.9832 34.376 58.9696C34.4328 58.579 34.619 58.2187 34.9047 57.9463L36.2182 56.8437C36.5215 56.5891 36.77 56.7048 36.7706 57.1008ZM34.9545 57.2452L36.2287 56.1225C36.5495 55.806 36.735 55.3774 36.7463 54.9269L36.7328 54.5C36.7203 54.1042 36.467 53.9945 36.1699 54.2563L34.8958 55.3785C34.575 55.695 34.3894 56.1236 34.3782 56.5741L34.3917 57.0015C34.4041 57.3973 34.6574 57.507 34.9545 57.2452V57.2452ZM36.7606 51.8888H35.9783L34.9047 52.79C34.5762 53.099 34.3793 53.5226 34.3547 53.9729V54.4002C34.3553 54.7962 34.6039 54.9119 34.9072 54.6573L36.2207 53.5547C36.5491 53.2457 36.7461 52.8221 36.7707 52.3718L36.7701 51.9445C36.7679 51.9258 36.7647 51.9072 36.7606 51.8888V51.8888ZM34.9545 52.0888L35.1816 51.8888H34.4009C34.4332 52.242 34.6708 52.3389 34.9545 52.0889V52.0888ZM33.9333 51.8888H33.1975L33.3975 52.0564C33.6725 52.2875 33.8929 52.2007 33.9333 51.8888ZM32.0746 53.5216L33.3488 54.6442C33.646 54.906 33.8988 54.7963 33.9117 54.4005L33.9252 53.9732C33.914 53.5227 33.7285 53.0941 33.4077 52.7775L32.3989 51.8888H31.5726L31.5706 51.8988L31.5571 52.3262C31.5683 52.7767 31.7538 53.2052 32.0746 53.5216V53.5216ZM32.0861 54.2428C31.7828 53.9881 31.5342 54.1038 31.5336 54.4998V54.9271C31.5582 55.3774 31.7552 55.801 32.0836 56.11L33.3971 57.2126C33.7004 57.4672 33.949 57.3515 33.9495 56.9555L33.9501 56.5282C33.9254 56.0779 33.7285 55.6544 33.4 55.3453L32.0861 54.2428ZM32.1334 56.8111C31.8363 56.5493 31.5834 56.659 31.5706 57.0548L31.5571 57.4822C31.5683 57.9327 31.7538 58.3613 32.0746 58.6778L32.2404 58.8239C32.8527 58.8808 33.3269 58.9224 33.9061 58.9508C33.8573 58.566 33.682 58.2082 33.4077 57.9338L32.1334 56.8111ZM30.576 56.8437L30.176 57.1798L30.1887 57.2854C30.1971 57.5132 30.2575 57.736 30.3651 57.9368C30.4728 58.1376 30.625 58.3112 30.81 58.4442C31.0003 58.1749 31.1108 57.8574 31.1289 57.5281V57.1008C31.1279 56.7048 30.8793 56.5891 30.576 56.8437V56.8437ZM31.1041 54.9269L31.0906 54.5C31.0782 54.1042 30.8249 53.9945 30.5278 54.2563L29.8914 54.8171L30.1 56.5512L30.5865 56.1225C30.9074 55.8061 31.0929 55.3775 31.1041 54.9269V54.9269ZM31.1158 51.8745C30.887 51.8646 30.6589 51.8424 30.4324 51.808L29.5111 52.5813C29.6295 52.8751 29.7042 53.1846 29.733 53.5L29.8166 54.1946L30.5786 53.5546C30.907 53.2456 31.104 52.822 31.1286 52.3717V51.9444C31.1258 51.9209 31.1215 51.8975 31.1158 51.8745ZM28.7477 51.3082C28.7452 51.3443 28.7349 51.3837 28.736 51.4182L28.7422 51.6151C28.9127 51.7374 29.0682 51.8795 29.2053 52.0383C29.2261 52.0647 29.2397 52.0944 29.2591 52.1215C29.2774 52.1117 29.2952 52.1009 29.3124 52.0892L29.7824 51.6749C29.4276 51.5828 29.0814 51.4601 28.7477 51.3082V51.3082ZM27.3769 50.4632C27.6419 50.7813 27.9518 51.059 28.2969 51.2877C28.2885 51.21 28.274 51.1331 28.2534 51.0577C27.9454 50.8841 27.6522 50.6852 27.3769 50.4632V50.4632ZM45.6746 51.3046C46.0217 51.0742 46.3345 50.7958 46.6037 50.4777C46.3247 50.7022 46.0273 50.9029 45.7148 51.0777C45.6957 51.1522 45.6823 51.2281 45.6746 51.3046V51.3046ZM44.2246 51.6728L44.6816 52.0564C44.704 52.0714 44.7274 52.0847 44.7516 52.0964C44.7656 52.0775 44.7748 52.0564 44.7895 52.0379C44.9213 51.8844 45.0706 51.7467 45.2344 51.6279V51.3715C45.2344 51.3553 45.2281 51.3364 45.2274 51.3198C44.9035 51.4653 44.568 51.5834 44.2244 51.6728H44.2246ZM42.8599 51.8757C42.8599 51.8847 42.8554 51.8892 42.8551 51.8985L42.8416 52.3259C42.8529 52.7765 43.0384 53.2051 43.3592 53.5216L44.1728 54.2384L44.2616 53.4997C44.2903 53.1876 44.3639 52.8812 44.48 52.59L43.5885 51.8045C43.3472 51.8421 43.104 51.8658 42.86 51.8757H42.8599ZM42.818 54.5L42.8174 54.9273C42.8421 55.3776 43.039 55.8012 43.3674 56.1102L43.8938 56.5521L44.0981 54.8541L43.3699 54.243C43.0671 53.9881 42.8185 54.1038 42.818 54.5V54.5ZM42.9133 57.0159L42.8998 57.4433C42.9081 57.7657 43.0061 58.0793 43.1829 58.3489C43.3597 58.2296 43.5074 58.0721 43.6153 57.8881C43.7232 57.704 43.7884 57.4982 43.8062 57.2856L43.8304 57.0844L43.4761 56.7723C43.179 56.51 42.9257 56.62 42.9133 57.0157V57.0159ZM41.8604 56.8439L40.5468 57.9465C40.2583 58.2217 40.0715 58.5866 40.0168 58.9815C40.5859 58.9737 41.1538 58.9247 41.7158 58.8349L41.8632 58.7112C42.1916 58.4022 42.3886 57.9786 42.4132 57.5283L42.4126 57.101C42.4122 56.7048 42.1636 56.5891 41.86 56.8437L41.8604 56.8439ZM40.5967 57.2454L41.8708 56.1227C42.1917 55.8063 42.3772 55.3777 42.3884 54.9271L42.375 54.5C42.3625 54.1042 42.1092 53.9945 41.8121 54.2563L40.5379 55.379C40.2171 55.6955 40.0316 56.1241 40.0203 56.5746L40.0338 57.002C40.0463 57.3973 40.3 57.507 40.5967 57.2452V57.2454ZM42.4027 51.889H41.6205L40.5468 52.7902C40.2184 53.0993 40.0215 53.5228 39.9968 53.9731L39.9974 54.4004C39.9979 54.7964 40.2465 54.9121 40.5498 54.6575L41.8634 53.5549C42.1918 53.2459 42.3888 52.8223 42.4134 52.372L42.4128 51.9447C42.4104 51.9259 42.407 51.9073 42.4027 51.8888V51.889ZM40.5967 52.089L40.8238 51.889H40.0431C40.0753 52.242 40.3129 52.3389 40.5967 52.0889V52.089ZM39.5755 51.889H38.84L39.0395 52.0566C39.3146 52.2875 39.535 52.2007 39.5755 51.8888V51.889ZM37.7168 53.5218L38.991 54.6444C39.2881 54.9062 39.541 54.7965 39.5539 54.4007L39.5674 53.9734C39.5561 53.5229 39.3706 53.0943 39.0498 52.7777L38.0411 51.889H37.2148L37.2127 51.899L37.1993 52.3264C37.2106 52.7768 37.3961 53.2052 37.7168 53.5216V53.5218ZM37.7283 54.243C37.4249 53.9883 37.1763 54.104 37.1758 54.5L37.1752 54.9273C37.1999 55.3776 37.3968 55.8012 37.7252 56.1102L39.0387 57.2128C39.3421 57.4674 39.5907 57.3517 39.5912 56.9557L39.5918 56.5284C39.5672 56.0781 39.3702 55.6546 39.0418 55.3455L37.7283 54.243ZM37.7756 56.8113C37.4785 56.5495 37.2256 56.6592 37.2127 57.055L37.1993 57.4824C37.2105 57.9329 37.396 58.3616 37.7168 58.678L38.0823 59C38.6264 59.0005 39.1147 58.999 39.5523 58.9921C39.5114 58.5921 39.3338 58.2183 39.0494 57.9339L37.7756 56.8113ZM35.8812 15.77C35.2661 15.7737 34.7869 15.7827 34.376 15.7963C34.4327 16.1871 34.6189 16.5476 34.9047 16.82L36.2182 17.9226C36.5215 18.1772 36.7701 18.0616 36.7706 17.6656L36.7712 17.2383C36.7465 16.788 36.5496 16.3644 36.2212 16.0553L35.8812 15.77ZM36.1699 20.51C36.467 20.7718 36.7199 20.6621 36.7328 20.2663L36.7463 19.839C36.7351 19.3885 36.5495 18.9599 36.2287 18.6433L34.9545 17.521C34.6574 17.2592 34.4045 17.3688 34.3917 17.7646L34.3782 18.192C34.3894 18.6426 34.5749 19.0712 34.8958 19.3877L36.1699 20.51ZM34.9072 20.1085C34.6039 19.854 34.3553 19.9696 34.3547 20.3656V20.7929C34.3793 21.2433 34.5762 21.6669 34.9047 21.9759L35.992 22.8885H36.7585C36.7639 22.8664 36.7679 22.844 36.7706 22.8213L36.7712 22.394C36.7466 21.9437 36.5496 21.5202 36.2212 21.2111L34.9072 20.1085ZM34.9545 22.6769C34.6673 22.4238 34.4258 22.5243 34.3985 22.8885H35.1947L34.9545 22.6769ZM33.3971 22.71L33.1838 22.889H33.9354C33.9 22.5666 33.6761 22.4757 33.3971 22.71ZM33.3488 20.1221L32.0746 21.2446C31.7538 21.5611 31.5683 21.9896 31.5571 22.44L31.5706 22.8674C31.5706 22.8761 31.5746 22.8803 31.5751 22.8886H32.3859L33.4077 21.9886C33.7285 21.6721 33.914 21.2435 33.9252 20.793L33.9117 20.3656C33.8993 19.97 33.646 19.86 33.3488 20.1219V20.1221ZM33.3971 17.5537L32.0836 18.6561C31.7552 18.9652 31.5582 19.3887 31.5336 19.839V20.2663C31.5342 20.6623 31.7828 20.778 32.0861 20.5234L33.4 19.4208C33.7284 19.1118 33.9254 18.6882 33.95 18.2379V17.8106C33.949 17.4146 33.7 17.299 33.3971 17.5535V17.5537ZM32.1334 17.955L33.4077 16.8324C33.6819 16.558 33.8572 16.2003 33.9061 15.8154C33.3269 15.8438 32.8527 15.8854 32.2404 15.9423L32.0746 16.0883C31.7538 16.4048 31.5682 16.8335 31.5571 17.284L31.5706 17.7113C31.583 18.1071 31.8363 18.2168 32.1334 17.955V17.955ZM30.1883 17.4807L30.1756 17.5863L30.5756 17.9224C30.8789 18.177 31.1275 18.0614 31.1281 17.6654V17.2381C31.1102 16.9089 31 16.5915 30.81 16.322C30.6249 16.455 30.4727 16.6285 30.3649 16.8294C30.2572 17.0302 30.1968 17.253 30.1883 17.4807ZM31.0906 20.2666L31.1041 19.8393C31.0929 19.3888 30.9074 18.9601 30.5865 18.6436L30.1 18.2149L29.8914 19.95L30.5278 20.5107C30.8249 20.7721 31.0782 20.6624 31.0906 20.2666V20.2666ZM29.8166 20.5718L29.733 21.2665C29.7042 21.5818 29.6295 21.8912 29.5111 22.1848L30.444 22.9679C30.6661 22.9347 30.8897 22.9131 31.114 22.9033C31.1209 22.8765 31.1258 22.8492 31.1288 22.8216V22.3943C31.1042 21.944 30.9072 21.5205 30.5788 21.2114L29.8166 20.5718ZM29.7927 23.1L29.3127 22.6768C29.2956 22.6651 29.2778 22.6544 29.2594 22.6446C29.24 22.6716 29.2264 22.7014 29.2056 22.7277C29.0685 22.8866 28.9131 23.0287 28.7425 23.1509L28.7363 23.3479C28.7352 23.3855 28.7463 23.4285 28.7492 23.4679C29.0857 23.3152 29.4348 23.1921 29.7927 23.1V23.1ZM27.3461 24.3356V24.3375C27.6294 24.1068 27.932 23.9007 28.2504 23.7214C28.2725 23.6419 28.2879 23.5606 28.2964 23.4785C27.9369 23.7129 27.6162 24.0021 27.3461 24.3356V24.3356ZM46.6413 24.3281C46.3655 23.9913 46.0394 23.6991 45.6746 23.4615C45.6824 23.5425 45.6966 23.6228 45.7171 23.7015C46.0428 23.8831 46.3521 24.0928 46.6413 24.3281V24.3281ZM44.7892 22.7281C44.7745 22.7096 44.7653 22.6881 44.7513 22.6696C44.7271 22.6813 44.7037 22.6947 44.6813 22.7096L44.2139 23.102C44.5606 23.1914 44.8991 23.31 45.2258 23.4565C45.227 23.4365 45.2343 23.4136 45.2343 23.394V23.1375C45.0704 23.0189 44.9211 22.8815 44.7892 22.7281V22.7281ZM42.8414 22.44L42.8549 22.8674C42.8549 22.8815 42.8611 22.8885 42.8622 22.9019C43.1015 22.9116 43.3402 22.9346 43.5769 22.9709L44.4796 22.1756C44.3635 21.8846 44.29 21.5783 44.2614 21.2663L44.1725 20.5275L43.359 21.2444C43.0382 21.5609 42.8527 21.9895 42.8414 22.44V22.44ZM43.3704 20.5232L44.0986 19.912L43.8943 18.214L43.3679 18.6559C43.0395 18.965 42.8426 19.3885 42.8179 19.8388L42.8185 20.2661C42.8185 20.6623 43.0671 20.778 43.37 20.5234L43.3704 20.5232ZM43.4761 17.9939L43.83 17.682L43.8058 17.4807C43.788 17.2682 43.7228 17.0623 43.615 16.8783C43.5071 16.6943 43.3594 16.5368 43.1826 16.4174C43.006 16.6871 42.9081 17.0008 42.9 17.323L42.9135 17.7504C42.9257 18.1462 43.179 18.2559 43.4761 17.9941V17.9939ZM41.7156 15.9315C41.1535 15.8418 40.5857 15.7927 40.0165 15.7848C40.0711 16.1798 40.258 16.5446 40.5465 16.8198L41.86 17.9224C42.1632 18.177 42.4118 18.0614 42.4124 17.6654L42.413 17.2381C42.3883 16.7878 42.1914 16.3642 41.863 16.0551L41.7156 15.9315ZM41.8121 20.5103C42.1092 20.7721 42.3621 20.6624 42.375 20.2666L42.3884 19.8393C42.3772 19.3888 42.1917 18.9601 41.8708 18.6436L40.5967 17.521C40.2996 17.2592 40.0467 17.3688 40.0338 17.7646L40.02 18.192C40.0313 18.6426 40.2168 19.0712 40.5376 19.3877L41.8121 20.5103ZM40.5493 20.1088C40.246 19.8543 39.9974 19.9699 39.9969 20.3659L39.9963 20.7932C40.021 21.2435 40.2179 21.6671 40.5463 21.9762L41.6337 22.8888H42.4001C42.4055 22.8667 42.4096 22.8443 42.4123 22.8216L42.4129 22.3943C42.3883 21.944 42.1913 21.5205 41.8629 21.2114L40.5493 20.1088ZM40.5967 22.6772C40.3094 22.4241 40.068 22.5246 40.0406 22.8888H40.8369L40.5967 22.6772ZM39.0392 22.7098L38.826 22.8888H39.5776C39.5416 22.5666 39.3182 22.4757 39.0392 22.71V22.7098ZM38.991 20.1219L37.7168 21.2446C37.396 21.5611 37.2105 21.9897 37.1993 22.4402L37.2127 22.8676C37.2127 22.8763 37.2167 22.8805 37.2172 22.8888H38.0281L39.0498 21.9888C39.3706 21.6723 39.5561 21.2437 39.5674 20.7932L39.5539 20.3658C39.5414 19.97 39.2881 19.86 38.991 20.1219V20.1219ZM39.0392 17.5535L37.7257 18.6561C37.3973 18.9652 37.2004 19.3887 37.1757 19.839L37.1763 20.2663C37.1763 20.6623 37.4254 20.778 37.7288 20.5234L39.0423 19.4208C39.3707 19.1118 39.5677 18.6882 39.5923 18.2379L39.5917 17.8106C39.5912 17.4146 39.3426 17.299 39.0392 17.5535ZM37.7756 17.955L39.05 16.8324C39.3344 16.548 39.512 16.1742 39.5529 15.7741C39.1149 15.7672 38.6268 15.7656 38.0829 15.7662L37.7172 16.0883C37.3964 16.4048 37.2109 16.8335 37.1997 17.284L37.2131 17.7113C37.2252 18.1071 37.4785 18.2168 37.7756 17.955ZM50 29.53H49V29.2887C49.0001 28.1494 48.6958 27.0308 48.1186 26.0486C47.5415 25.0663 46.7124 24.2561 45.7171 23.7016C45.5577 23.6125 45.3932 23.5316 45.2259 23.4566C44.7004 23.2217 44.1458 23.0584 43.5769 22.971C43.3402 22.9347 43.1015 22.9117 42.8622 22.902C42.7745 22.8984 42.6885 22.8887 42.6 22.8887H31.4C31.3033 22.8887 31.2093 22.8987 31.1137 22.9032C30.2965 22.9388 29.4938 23.1308 28.7489 23.4687C28.5789 23.5463 28.4121 23.6296 28.2504 23.7213C27.2626 24.2766 26.4407 25.0852 25.8694 26.0638C25.2981 27.0424 24.998 28.1557 25 29.2888V45.4888C25 46.6221 25.3012 47.735 25.8727 48.7135C26.4443 49.6921 27.2658 50.5011 28.2529 51.0577C28.4135 51.1486 28.5789 51.2311 28.7477 51.3077C29.2836 51.5511 29.8505 51.7194 30.4324 51.8077C30.6589 51.8421 30.887 51.8643 31.1158 51.8742C31.2108 51.8783 31.304 51.8885 31.4 51.8885H42.6C42.6877 51.8885 42.7729 51.8785 42.86 51.8754C43.1039 51.8657 43.3471 51.842 43.5883 51.8046C44.1539 51.7168 44.7052 51.5538 45.2277 51.32C45.3937 51.245 45.557 51.1654 45.7151 51.0771C46.7094 50.5211 47.5377 49.7104 48.115 48.7283C48.6923 47.7462 48.9978 46.6281 49 45.4889V34.53H50V29.53ZM48 45.4889C47.9901 46.918 47.418 48.2858 46.4075 49.2964C45.3969 50.307 44.0291 50.8791 42.6 50.8889H31.4C31.1649 50.8872 30.9301 50.8701 30.6972 50.8378C29.3994 50.666 28.208 50.0291 27.3442 49.0454C26.4804 48.0617 26.0028 46.7981 26 45.4889V29.2889C26.0109 27.8601 26.5833 26.4929 27.5937 25.4826C28.604 24.4723 29.9712 23.8998 31.4 23.8889H42.6C44.0308 23.8934 45.4018 24.4637 46.4135 25.4754C47.4252 26.4872 47.9956 27.8581 48 29.2889V29.53V34.53V45.4889Z" fill="#1D1D1F"/>
</g>
<defs>
<clipPath id="clip0_12_26">
<rect width="63" height="54" fill="white" transform="translate(25 9)"/>
</clipPath>
</defs>
</svg>
