<svg width="112" height="72" viewBox="0 0 112 72" fill="none" xmlns="http://www.w3.org/2000/svg">
<g clip-path="url(#clip0_12_44)">
<path d="M66.7 25H59V18C59 16.8954 59.8955 16 61 16H68.499C68.7751 16 68.999 16.2238 68.999 16.5V25.9409C68.4041 25.3607 67.5942 25 66.7 25ZM79.5 16H70.5C70.2239 16 70 16.2238 70 16.5V28.3023V56.6977V58.5C70 58.7761 70.2239 59 70.5 59H79.5C79.7761 59 80 58.7761 80 58.5V16.5C80 16.2238 79.7761 16 79.5 16ZM87 16H84H81.5C81.2239 16 81 16.2238 81 16.5V58.5C81 58.7761 81.2239 59 81.5 59H84H87C88.1045 59 89 58.1046 89 57V18C89 16.8954 88.1045 16 87 16ZM28 57H26C25.4478 57 25 56.5523 25 56V14C25 13.4477 25.4478 13 26 13H28H54C54.5522 13 55 13.4477 55 14V25H57V14C57 12.3431 55.6569 11 54 11H28H26C24.3431 11 23 12.3431 23 14V56C23 57.6569 24.3431 59 26 59H28H45.9415C45.428 58.4733 45.1021 57.7737 45.0305 57H28ZM68.9695 27.9999C68.9828 28.0999 69 28.1987 69 28.3023V56.6977C69 57.9692 67.9702 59 66.7 59H50.106H49.1199H48.3C48.2347 59 48.1733 58.9861 48.1093 58.9808C47.0311 58.8907 46.1713 58.0641 46.0304 57C46.0172 56.9001 46 56.8013 46 56.6977V56.5V56V28.3023C46 27.0308 47.0298 26 48.3 26H54H54.5H55H57H57.5H58H59H66.7C67.8667 26 68.8203 26.8728 68.9695 27.9999V27.9999ZM67 28.7436C67 28.3329 66.6729 28 66.2693 28H48.7307C48.3271 28 48 28.3329 48 28.7436V56.2564C48 56.6671 48.3271 57 48.7307 57H66.2693C66.6729 57 67 56.6671 67 56.2564V28.7436Z" fill="black"/>
</g>
<defs>
<clipPath id="clip0_12_44">
<rect width="66" height="54" fill="white" transform="translate(23 9)"/>
</clipPath>
</defs>
</svg>
