<svg width="112" height="72" viewBox="0 0 112 72" fill="none" xmlns="http://www.w3.org/2000/svg">
<g clip-path="url(#clip0_12_51)">
<path d="M76.6299 56.5C76.6299 56.7235 76.5636 56.9419 76.4395 57.1278C76.3153 57.3136 76.1388 57.4584 75.9323 57.544C75.7259 57.6295 75.4987 57.6519 75.2795 57.6083C75.0603 57.5647 74.8589 57.457 74.7009 57.299C74.5428 57.141 74.4352 56.9396 74.3916 56.7204C74.348 56.5012 74.3704 56.274 74.4559 56.0675C74.5415 55.8611 74.6863 55.6846 74.8721 55.5604C75.0579 55.4362 75.2764 55.37 75.4999 55.37C75.7995 55.3703 76.0867 55.4895 76.2986 55.7013C76.5104 55.9132 76.6296 56.2004 76.6299 56.5V56.5ZM84.9999 22V56C84.9999 56.7956 84.6838 57.5587 84.1212 58.1213C83.5586 58.6839 82.7956 59 81.9999 59H68.9999C68.254 58.9982 67.5359 58.7167 66.9874 58.2112C67.1459 58.0066 67.2855 57.7881 67.4047 57.5584C67.6047 57.1622 67.7479 56.7399 67.83 56.3038C67.9337 55.6888 67.9785 55.0654 67.9638 54.442V54H83.9999V24H67.964V20.6048V20.309C67.9627 19.9373 67.9496 19.5716 67.9217 19.2081C68.2651 19.0725 68.6307 19.0019 68.9999 19H81.9999C82.7956 19 83.5586 19.316 84.1212 19.8787C84.6838 20.4413 84.9999 21.2043 84.9999 22V22ZM71.8749 21.5C71.8749 21.4258 71.8529 21.3533 71.8117 21.2916C71.7705 21.23 71.7119 21.1819 71.6434 21.1535C71.5749 21.1251 71.4995 21.1177 71.4268 21.1322C71.354 21.1466 71.2872 21.1824 71.2347 21.2348C71.1823 21.2873 71.1466 21.3541 71.1321 21.4268C71.1176 21.4996 71.1251 21.575 71.1535 21.6435C71.1818 21.712 71.2299 21.7706 71.2916 21.8118C71.3532 21.853 71.4257 21.875 71.4999 21.875C71.5994 21.8749 71.6947 21.8354 71.765 21.7651C71.8354 21.6948 71.8749 21.5994 71.8749 21.5V21.5ZM77.9999 21.5C77.9997 21.4337 77.9733 21.3702 77.9265 21.3234C77.8796 21.2766 77.8162 21.2502 77.7499 21.25H73.2499C73.1836 21.25 73.12 21.2763 73.0731 21.3232C73.0262 21.3701 72.9999 21.4337 72.9999 21.5C72.9999 21.5663 73.0262 21.6299 73.0731 21.6767C73.12 21.7236 73.1836 21.75 73.2499 21.75H77.7499C77.8162 21.7498 77.8796 21.7234 77.9265 21.6765C77.9733 21.6297 77.9997 21.5662 77.9999 21.5V21.5ZM77.2499 56.5C77.2499 56.1539 77.1473 55.8155 76.955 55.5277C76.7627 55.2399 76.4894 55.0156 76.1696 54.8832C75.8498 54.7507 75.498 54.7161 75.1585 54.7836C74.819 54.8511 74.5072 55.0178 74.2625 55.2625C74.0177 55.5073 73.8511 55.8191 73.7835 56.1586C73.716 56.498 73.7507 56.8499 73.8831 57.1697C74.0156 57.4894 74.2399 57.7628 74.5277 57.955C74.8154 58.1473 75.1538 58.25 75.4999 58.25C75.964 58.25 76.4092 58.0656 76.7373 57.7374C77.0655 57.4092 77.2499 56.9641 77.2499 56.5V56.5ZM32.9313 22.2548C32.6652 22.4237 32.3655 22.5326 32.053 22.5739C31.7405 22.6152 31.4228 22.588 31.1219 22.494C30.821 22.4001 30.5442 22.2418 30.3107 22.03C30.0772 21.8183 29.8927 21.5582 29.7699 21.2679C29.6539 20.9608 29.6124 20.6306 29.649 20.3043C29.6855 19.9781 29.7991 19.6652 29.9802 19.3915C30.1614 19.1177 30.405 18.8909 30.691 18.7297C30.9769 18.5685 31.2971 18.4776 31.6251 18.4644C32.085 18.4223 32.5457 18.5358 32.9336 18.7865C33.3214 19.0372 33.6139 19.4108 33.7644 19.8474C33.9149 20.284 33.9146 20.7585 33.7635 21.1949C33.6125 21.6314 33.3195 22.0045 32.9313 22.2548ZM36.6088 21.04C36.2629 21.0523 35.9256 21.151 35.6277 21.3271C35.3297 21.5032 35.0806 21.7511 34.903 22.0482C34.7254 22.3452 34.625 22.682 34.6109 23.0278C34.5968 23.3736 34.6695 23.7175 34.8224 24.028C34.9659 24.2925 35.1626 24.5245 35.4 24.7094C35.6374 24.8943 35.9105 25.0282 36.2021 25.1025C36.4937 25.1769 36.7975 25.1902 37.0945 25.1417C37.3915 25.0931 37.6752 24.9836 37.9279 24.8202C38.3118 24.5672 38.6002 24.1934 38.7475 23.7579C38.8948 23.3224 38.8926 22.8502 38.7411 22.4162C38.5897 21.9821 38.2976 21.611 37.9114 21.3617C37.5251 21.1124 37.0667 20.9992 36.6088 21.04V21.04ZM31.7121 23.62C31.3754 23.6192 31.0436 23.7005 30.7454 23.8568C30.4472 24.0132 30.1917 24.2399 30.0008 24.5173C29.81 24.7947 29.6897 25.1144 29.6503 25.4488C29.6109 25.7832 29.6537 26.1221 29.7748 26.4363C29.9308 26.7968 30.1821 27.108 30.5017 27.3363C30.8213 27.5646 31.1972 27.7015 31.5888 27.7321C31.9804 27.7627 32.3729 27.686 32.7242 27.5102C33.0754 27.3343 33.3721 27.066 33.5822 26.7342C33.7714 26.4138 33.8706 26.0482 33.8693 25.6761C33.8679 25.304 33.7661 24.9392 33.5745 24.6202C33.3829 24.3012 33.1088 24.0398 32.781 23.8638C32.4531 23.6877 32.0838 23.6035 31.7121 23.62V23.62ZM45.5668 57.5588C45.7473 57.9067 45.9747 58.2281 46.2426 58.5142C45.9206 58.6657 45.581 58.7766 45.2316 58.8442C44.8336 58.9161 44.4304 58.9558 44.026 58.963C43.6547 58.9745 43.1623 58.973 42.7716 58.973H32.7116H32.2956C32.185 58.973 32.075 58.9726 31.9656 58.9718C31.3914 58.9819 30.8174 58.9393 30.251 58.8444C29.8637 58.7722 29.4883 58.6465 29.1357 58.4707C28.4377 58.1201 27.8696 57.5561 27.5139 56.8607C27.3368 56.5113 27.2101 56.1386 27.1374 55.7537C27.0357 55.1373 26.9923 54.5128 27.008 53.8883C27.008 53.7801 27.008 53.6711 27.008 53.5614V21.1884C27.008 21.0785 27.008 20.9695 27.008 20.8614C26.9925 20.2368 27.0359 19.6122 27.1378 18.9959C27.2105 18.611 27.3373 18.2383 27.5143 17.889C27.8699 17.1935 28.4381 16.6295 29.1361 16.279C29.4887 16.1032 29.8641 15.9773 30.2514 15.9052C30.6495 15.8332 31.0527 15.7935 31.4572 15.7865C31.8285 15.775 32.3209 15.7765 32.7116 15.7765H42.7716H43.1876C43.2976 15.7765 43.4076 15.7765 43.517 15.7777C44.0912 15.7675 44.6652 15.8102 45.2316 15.9051C45.581 15.9727 45.9206 16.0835 46.2426 16.2351C45.9747 16.5212 45.7473 16.8428 45.5668 17.1908C45.3667 17.5869 45.2235 18.0093 45.1413 18.4454C45.0377 19.0604 44.993 19.6839 45.0077 20.3074V20.6041V54.1441V54.4391C44.9929 55.0631 45.0376 55.6871 45.1413 56.3026C45.2233 56.7393 45.3665 57.1622 45.5668 57.5588V57.5588ZM39.3868 21.5281C39.3868 21.2488 39.3868 21.0546 39.3863 20.892C39.3863 20.732 39.3843 20.5998 39.3802 20.4784C39.3747 20.24 39.3479 20.0027 39.3002 19.7691C39.2489 19.5253 39.1643 19.2898 39.0488 19.0691C38.8082 18.613 38.4353 18.2404 37.9791 18C37.7584 17.8844 37.5229 17.7999 37.2791 17.7486C37.0456 17.7007 36.8082 17.6739 36.5699 17.6686C36.4486 17.6644 36.316 17.6629 36.1561 17.6623C35.9937 17.6617 35.7994 17.6623 35.5201 17.6623H32.7809C32.5016 17.6623 32.3073 17.6623 32.1447 17.6623C31.9847 17.6629 31.8524 17.6644 31.7311 17.6686C31.4925 17.6739 31.2549 17.7007 31.0211 17.7486C30.7777 17.7999 30.5425 17.8845 30.3222 18C29.866 18.2407 29.4932 18.6136 29.2528 19.07C29.1373 19.2907 29.0527 19.5262 29.0014 19.77C28.9535 20.0035 28.9268 20.2409 28.9214 20.4793C28.917 20.6007 28.9158 20.7331 28.9151 20.8929V21.529V24.675V25.311C28.9158 25.471 28.917 25.6032 28.9214 25.7247C28.9268 25.963 28.9536 26.2003 29.0014 26.4339C29.0527 26.6776 29.1373 26.9132 29.2528 27.1339C29.4933 27.59 29.8661 27.9627 30.3222 28.2032C30.5427 28.3187 30.778 28.4033 31.0216 28.4546C31.2554 28.5025 31.493 28.5292 31.7316 28.5346C31.8529 28.5388 31.9853 28.5402 32.1452 28.5409C32.3078 28.5415 32.5021 28.5409 32.7814 28.5409H35.5214H36.1574C36.3174 28.5402 36.4499 28.5388 36.5712 28.5346C36.8095 28.5292 37.0469 28.5024 37.2804 28.4546C37.5242 28.4033 37.7597 28.3187 37.9804 28.2032C38.4365 27.9627 38.8093 27.59 39.0498 27.1339C39.1653 26.9132 39.2499 26.6776 39.3012 26.4339C39.3489 26.2003 39.3757 25.963 39.3812 25.7247C39.3853 25.6032 39.3868 25.4709 39.3873 25.311C39.3878 25.1485 39.3878 24.9542 39.3878 24.675L39.3868 21.5281ZM46.7291 57.5481C46.6273 57.4077 46.5368 57.2596 46.4583 57.105C46.3793 56.9495 46.312 56.7884 46.2569 56.623C46.312 56.7884 46.3793 56.9496 46.4583 57.1051C46.5367 57.2596 46.6271 57.4077 46.7287 57.548L46.7291 57.5481ZM50.8644 16.75H50.9818H51.091H61.8905H62.2592L62.5473 16.751C62.9965 16.7424 63.4456 16.7744 63.8891 16.8467C64.1432 16.8936 64.3894 16.9761 64.6205 17.0917C65.0549 17.3114 65.4076 17.6643 65.6273 18.0987C65.7429 18.3296 65.8253 18.5757 65.8722 18.8297C65.9499 19.3212 65.9822 19.8189 65.9687 20.3164V20.6046V53.92V54.4347C65.9822 54.9316 65.9499 55.4286 65.8722 55.9196C65.8253 56.1737 65.7428 56.42 65.6271 56.6511C65.4073 57.0856 65.0544 57.4385 64.6199 57.6582C64.389 57.7737 64.143 57.8561 63.8891 57.903C63.5877 57.9574 63.2823 57.987 62.9761 57.9915C62.7231 57.9994 62.405 58 62.1161 58H61.9999H61.8907H51.091H50.721L50.4339 57.999C49.9845 58.0076 49.5352 57.9755 49.0916 57.9032C48.8378 57.8563 48.5918 57.7739 48.3609 57.6584C47.9264 57.4387 47.5735 57.0858 47.3538 56.6513C47.2383 56.4203 47.1559 56.1742 47.109 55.9203C47.0311 55.4299 46.9988 54.9334 47.0125 54.4371V54.1454V20.6054V20.3154C46.9988 19.8183 47.0312 19.321 47.1093 18.83C47.1562 18.5759 47.2386 18.3296 47.3541 18.0985C47.574 17.6644 47.9266 17.3118 48.3607 17.092C48.5918 16.9765 48.8379 16.894 49.0919 16.847C49.3933 16.7926 49.6987 16.763 50.005 16.7585C50.258 16.7506 50.5761 16.75 50.8644 16.75M50.8644 15.75C50.5656 15.75 50.236 15.7508 49.9744 15.759C49.6139 15.7653 49.2546 15.8009 48.8999 15.8655C48.5548 15.9303 48.2205 16.0432 47.9067 16.2008C47.2843 16.5166 46.7786 17.0224 46.463 17.645C46.3055 17.9587 46.1926 18.293 46.1278 18.6381C46.0372 19.1911 45.9987 19.7514 46.0128 20.3116C46.0124 20.4086 46.0124 20.5063 46.0128 20.6048V54.1448V54.4381C45.9987 54.9982 46.0372 55.5585 46.1278 56.1115C46.1926 56.4565 46.3054 56.7908 46.463 57.1046C46.7787 57.7272 47.2845 58.233 47.9071 58.5488C48.2209 58.7064 48.5552 58.8193 48.9003 58.8841C49.4046 58.9692 49.9157 59.0075 50.4271 58.9984C50.5243 58.999 50.6221 58.9993 50.7204 58.9994H51.091H61.8905H62.1168C62.4157 58.9994 62.7455 58.9986 63.0075 58.9904C63.3677 58.984 63.7268 58.9484 64.0812 58.8839C64.4262 58.8191 64.7605 58.7063 65.0741 58.5486C65.6969 58.233 66.2028 57.7271 66.5185 57.1044C66.6761 56.7906 66.7889 56.4563 66.8537 56.1113C66.9442 55.5583 66.9827 54.998 66.9687 54.4379V53.9207V20.6048C66.9687 20.5062 66.9687 20.4085 66.9687 20.3116C66.9827 19.7514 66.9442 19.1911 66.8537 18.6381C66.7889 18.293 66.6761 17.9587 66.5185 17.645C66.2028 17.0223 65.6969 16.5164 65.0741 16.2008C64.7604 16.0431 64.4262 15.9303 64.0812 15.8655C63.5769 15.7804 63.0657 15.7421 62.5543 15.7512C62.4572 15.7506 62.3594 15.7502 62.2611 15.7502H61.8905H51.091H50.8644V15.75ZM58.5937 17.26H54.421C54.1803 17.2625 53.9503 17.3599 53.781 17.531C53.6117 17.702 53.5168 17.933 53.5168 18.1737C53.5168 18.4144 53.6117 18.6454 53.781 18.8165C53.9503 18.9876 54.1803 19.085 54.421 19.0875H58.5937C58.7145 19.0887 58.8344 19.066 58.9463 19.0207C59.0583 18.9753 59.1602 18.9082 59.246 18.8232C59.3319 18.7383 59.4001 18.6371 59.4466 18.5256C59.4931 18.4141 59.5171 18.2945 59.5171 18.1737C59.5171 18.0529 59.4931 17.9333 59.4466 17.8218C59.4001 17.7103 59.3319 17.6092 59.246 17.5242C59.1602 17.4392 59.0583 17.3721 58.9463 17.3268C58.8344 17.2814 58.7145 17.2587 58.5937 17.26V17.26ZM58.6459 18.6237C58.5569 18.6237 58.4699 18.5973 58.3959 18.5478C58.3219 18.4984 58.2642 18.4281 58.2302 18.3459C58.1961 18.2637 58.1872 18.1732 58.2046 18.0859C58.2219 17.9986 58.2648 17.9184 58.3277 17.8555C58.3906 17.7925 58.4708 17.7497 58.5581 17.7323C58.6454 17.715 58.7359 17.7239 58.8181 17.7579C58.9003 17.792 58.9706 17.8497 59.0201 17.9237C59.0695 17.9977 59.0959 18.0847 59.0959 18.1737C59.0959 18.2328 59.0843 18.2913 59.0617 18.3459C59.0391 18.4005 59.0059 18.4501 58.9641 18.4919C58.9224 18.5337 58.8727 18.5669 58.8181 18.5895C58.7635 18.6121 58.705 18.6238 58.6459 18.6238V18.6237Z" fill="#1D1D1F"/>
</g>
<defs>
<clipPath id="clip0_12_51">
<rect width="58" height="54" fill="white" transform="translate(27 9)"/>
</clipPath>
</defs>
</svg>
