<svg width="112" height="72" viewBox="0 0 112 72" fill="none" xmlns="http://www.w3.org/2000/svg">
<g clip-path="url(#clip0_12_37)">
<path d="M109 57C108.947 57.0923 108.648 57.3232 108.564 57.3232C108.564 57.3232 106.494 58.5737 103.926 58.7451C101.358 58.9165 99 58.9971 99 58.9971L86 59C86 59 77.7373 58.9962 74.3866 58.9962C73.5348 58.9962 73.0004 58.9964 73 58.9971C72.9996 58.9978 72.9901 58.9982 72.9719 58.9982C72.686 58.9982 70.2636 58.9085 67.8506 58.7451C65.2822 58.5713 63.211 57.3232 63.211 57.3232C63.127 57.3232 63.0528 57.0923 63.0001 57H67.0001V51H69.0001V57H70.0001H103V37H79V35H103.5C104.477 35 105 35.5415 105 36.5V57H109ZM7.75 37V36.5C7.75 35.5352 8.5352 34.75 9.5 34.75H31V33H8.5C7.1193 33 6 34.1193 6 35.5V38.75C6.9648 38.75 7.75 37.9648 7.75 37ZM33.5 51H44V56.5C44 57.8807 42.8807 59 41.5 59H8.5C7.1193 59 6 57.8807 6 56.5V39.25C7.2402 39.25 8.25 38.2407 8.25 37V36.5C8.25 35.8105 8.8105 35.25 9.5 35.25H31V48.5C31 49.8785 32.1215 51 33.5 51ZM24.9912 44.6138C24.9912 44.646 24.9912 44.6679 24.9922 44.6803C24.9949 44.6986 25.0166 44.7047 25.0596 44.7047C25.1636 44.7047 25.2661 44.6785 25.366 44.6233C25.4673 44.5692 25.5567 44.4964 25.6365 44.4028C25.7178 44.3117 25.7791 44.2075 25.8272 44.0912C25.8746 43.9738 25.9 43.8565 25.9 43.7409V43.692C25.9 43.678 25.8983 43.6631 25.8929 43.6465C25.7756 43.6535 25.6601 43.6832 25.5506 43.7418C25.4402 43.8013 25.3441 43.8784 25.2645 43.9659C25.1795 44.0597 25.1164 44.1638 25.0658 44.2758C25.0166 44.3897 24.9912 44.5009 24.9912 44.6138ZM26.8322 47.006C26.6413 46.9221 26.4925 46.7952 26.3875 46.6279C26.2798 46.4615 26.2282 46.2787 26.2282 46.0774C26.2282 45.8856 26.2667 45.7158 26.341 45.5749C26.419 45.4313 26.5433 45.3088 26.7132 45.2063C26.6212 45.0663 26.4942 44.9561 26.3367 44.8729C26.1757 44.7879 26.012 44.7459 25.835 44.7459C25.7694 44.7459 25.7056 44.7538 25.6426 44.7678C25.5803 44.7818 25.4998 44.8072 25.3948 44.8431C25.2888 44.8834 25.204 44.9123 25.147 44.9324C25.0928 44.9534 25.0543 44.963 25.0325 44.963C24.9693 44.963 24.8609 44.9288 24.7043 44.8606C24.5449 44.7948 24.4066 44.7607 24.2893 44.7607C24.1307 44.7607 23.9829 44.7948 23.849 44.8606C23.7142 44.9287 23.5969 45.0216 23.4945 45.1458C23.3929 45.2666 23.3115 45.4138 23.2538 45.5791C23.1962 45.7464 23.168 45.9285 23.168 46.1244C23.168 46.2523 23.1828 46.3818 23.2057 46.5167C23.2266 46.6524 23.2599 46.7845 23.2995 46.9157C23.3395 47.0505 23.393 47.1774 23.4492 47.3027C23.5102 47.4252 23.5708 47.539 23.6417 47.6422C23.717 47.7543 23.7853 47.8453 23.8491 47.9197C23.9104 47.995 23.9656 48.0545 24.0216 48.0991C24.0776 48.1429 24.1309 48.1753 24.1826 48.1954C24.2326 48.2129 24.2833 48.2224 24.341 48.2224C24.3769 48.2224 24.4302 48.2129 24.4889 48.1954C24.5468 48.1753 24.6132 48.1559 24.6849 48.1325C24.7541 48.1097 24.8242 48.0878 24.8958 48.0685C24.9642 48.0466 25.0307 48.0379 25.0901 48.0379C25.1454 48.0379 25.204 48.0467 25.2739 48.0643C25.3403 48.0862 25.4078 48.1053 25.4752 48.1272C25.5417 48.1491 25.6057 48.1693 25.6704 48.1885C25.7327 48.207 25.787 48.2165 25.8315 48.2165C25.9016 48.2165 25.968 48.2034 26.0302 48.1694C26.0966 48.136 26.1589 48.0905 26.2219 48.038C26.2525 48.0039 26.299 47.9548 26.3576 47.8858C26.4109 47.8166 26.4687 47.7343 26.5291 47.6423C26.5861 47.5531 26.6412 47.4507 26.6955 47.3438C26.748 47.2355 26.7944 47.1207 26.8322 47.006ZM66 50H62H61.5H48.5H48H45H44.5H44H33.5C32.6716 50 32 49.3284 32 48.5V35.25V34.75V33V32.5V32V24.5C32 23.6716 32.6716 23 33.5 23H76.5C77.3284 23 78 23.6716 78 24.5V34V34.5V35V37V37.5V38V48.5C78 49.3284 77.3284 50 76.5 50H70H69.5H69H67H66.5H66ZM66 48H66.5H67H69H69.5H70H76V38V37.5V37V35V34.5V34V25H34V32V32.5V33V34.75V35.25V48H44H44.5H45H66ZM49 51V59H61V51V50.5H49V51Z" fill="#1D1D1F"/>
</g>
<defs>
<clipPath id="clip0_12_37">
<rect width="103" height="54" fill="white" transform="translate(6 9)"/>
</clipPath>
</defs>
</svg>
