
<svg enable-background="new 0 0 103 54" height="54" viewBox="0 0 103 54" width="103" xmlns="http://www.w3.org/2000/svg"><path d="m103 48c-.0527.0923-.3517.3232-.4355.3232 0 0-2.0704 1.2505-4.6387 1.4219-2.5674.1714-4.9258.252-4.9258.252l-13 .0029s-8.2627-.0038-11.6134-.0038c-.8518 0-1.3862.0002-1.3866.0009s-.0099.0011-.0281.0011c-.2859 0-2.7083-.0897-5.1213-.2531-2.5684-.1738-4.6396-1.4219-4.6396-1.4219-.084 0-.1582-.2309-.2109-.3232h4v-6h2v6h1 33v-20h-24.0001v-2h24.5c.9774 0 1.5.5415 1.5 1.5v20.5zm-101.25-20v-.5c0-.9648.7852-1.75 1.75-1.75h21.5v-1.75h-22.5c-1.3807 0-2.5 1.1193-2.5 2.5v3.25c.9648 0 1.75-.7852 1.75-1.75zm25.75 14h10.5v5.5c0 1.3807-1.1193 2.5-2.5 2.5h-33c-1.3807 0-2.5-1.1193-2.5-2.5v-17.25c1.2402 0 2.25-1.0093 2.25-2.25v-.5c0-.6895.5605-1.25 1.25-1.25h21.5v13.25c0 1.3785 1.1215 2.5 2.5 2.5zm-8.5088-6.3862c0 .0322 0 .0541.001.0665.0027.0183.0244.0244.0674.0244.104 0 .2065-.0262.3064-.0814.1013-.0541.1907-.1269.2705-.2205.0813-.0911.1426-.1953.1907-.3116.0474-.1174.0728-.2347.0728-.3503v-.0489c0-.014-.0017-.0289-.0071-.0455-.1173.007-.2328.0367-.3423.0953-.1104.0595-.2065.1366-.2861.2241-.085.0938-.1481.1979-.1987.3099-.0492.1139-.0746.2251-.0746.338zm1.841 2.3922c-.1909-.0839-.3397-.2108-.4447-.3781-.1077-.1664-.1593-.3492-.1593-.5505 0-.1918.0385-.3616.1128-.5025.078-.1436.2023-.2661.3722-.3686-.092-.14-.219-.2502-.3765-.3334-.161-.085-.3247-.127-.5017-.127-.0656 0-.1294.0079-.1924.0219-.0623.014-.1428.0394-.2478.0753-.106.0403-.1908.0692-.2478.0893-.0542.021-.0927.0306-.1145.0306-.0632 0-.1716-.0342-.3282-.1024-.1594-.0658-.2977-.0999-.415-.0999-.1586 0-.3064.0341-.4403.0999-.1348.0681-.2521.161-.3545.2852-.1016.1208-.183.268-.2407.4333-.0576.1673-.0858.3494-.0858.5453 0 .1279.0148.2574.0377.3923.0209.1357.0542.2678.0938.399.04.1348.0935.2617.1497.387.061.1225.1216.2363.1925.3395.0753.1121.1436.2031.2074.2775.0613.0753.1165.1348.1725.1794.056.0438.1093.0762.161.0963.05.0175.1007.027.1584.027.0359 0 .0892-.0095.1479-.027.0579-.0201.1243-.0395.196-.0629.0692-.0228.1393-.0447.2109-.064.0684-.0219.1349-.0306.1943-.0306.0553 0 .1139.0088.1838.0264.0664.0219.1339.041.2013.0629.0665.0219.1305.0421.1952.0613.0623.0185.1166.028.1611.028.0701 0 .1365-.0131.1987-.0471.0664-.0334.1287-.0789.1917-.1314.0306-.0341.0771-.0832.1357-.1522.0533-.0692.1111-.1515.1715-.2435.057-.0892.1121-.1916.1664-.2985.0525-.1083.0989-.2231.1367-.3378zm39.1678 2.994h-4-.5-13-.5-3-.5-.5-10.5c-.8284 0-1.5-.6716-1.5-1.5v-13.25-.5-1.75-.5-.5-7.5c0-.8284.6716-1.5 1.5-1.5h43c.8284 0 1.5.6716 1.5 1.5v9.5.5.5 2 .5.5 10.5c0 .8284-.6716 1.5-1.5 1.5h-6.5-.5-.5-2-.5zm0-2h.5.5 2 .5.5 6v-10-.5-.5-2-.5-.5-9h-42v7 .5.5 1.75.5 12.75h10 .5.5zm-17 3v8h12v-8-.5h-12z" fill="#1d1d1f"/><path d="m0 0h103v54h-103z" fill="none"/></svg>