<svg width="112" height="72" viewBox="0 0 112 72" fill="none" xmlns="http://www.w3.org/2000/svg">
<path d="M32.7213 48.63C32.9413 48.68 33.1713 48.72 33.3913 48.75C34.7313 48.96 36.1213 49.01 37.4613 48.99H54.5613C55.9013 49 57.2913 48.96 58.6313 48.75C58.8613 48.71 59.0813 48.67 59.3013 48.63C60.5913 48.35 61.8013 47.87 62.4713 47.08C62.8713 46.6 63.0713 46.01 62.9813 45.29C62.9513 44.93 62.8913 44.59 62.8113 44.25C62.7313 43.91 62.6413 43.56 62.5613 43.2C62.2213 41.78 61.4913 38.81 61.2713 37.98C61.0713 37.23 60.9513 36.85 60.8313 36.52C60.2313 35.14 58.6013 34.5 56.8813 34.22C55.3413 33.99 53.2113 34.01 51.5013 34H40.2513C38.5413 34.01 36.6613 33.98 35.1213 34.22C33.4013 34.51 31.7713 35.14 31.1713 36.52C31.0413 36.85 30.9213 37.23 30.7313 37.98C30.5113 38.8 29.7913 41.78 29.4413 43.2C29.3513 43.56 29.2613 43.91 29.1913 44.25C29.1113 44.59 29.0513 44.93 29.0213 45.29C28.9313 46.02 29.1313 46.61 29.5313 47.08C30.2113 47.88 31.4213 48.36 32.7213 48.63ZM49.4113 39.95L50.7313 41.8H50.7513L51.8013 39.95H52.7813L51.2913 42.27H50.2513L48.4213 39.95H49.4113ZM45.3413 39.95H46.0413V39.41H46.9913L47.0013 39.94H47.9113L47.9213 40.3H47.0013L47.0213 41.61C47.0213 41.81 47.2113 41.91 47.6213 41.91C47.7313 41.91 47.8513 41.9 47.9613 41.9L47.9713 42.28C47.7913 42.29 47.6013 42.3 47.4113 42.3C46.4313 42.3 46.0513 42.12 46.0513 41.66V40.31H45.3313L45.3413 39.95V39.95ZM42.4813 39.26C42.7413 39.12 43.1013 39.04 43.4813 39.02C43.5013 39.2 43.3713 39.38 43.1113 39.52C42.8613 39.66 42.4813 39.75 42.0913 39.74C42.0813 39.57 42.2213 39.4 42.4813 39.26V39.26ZM39.5813 40.2C39.8913 39.96 40.4313 39.8 41.0213 39.8C41.4613 39.8 41.8613 39.94 42.1313 39.94C42.4013 39.94 42.8813 39.78 43.4413 39.79C43.9313 39.8 44.3913 39.92 44.6713 40.11C44.2213 40.24 43.9313 40.47 43.9113 40.73C43.9013 41.02 44.2613 41.29 44.8213 41.4C44.7113 41.57 44.5413 41.73 44.3313 41.88C44.0313 42.1 43.7013 42.3 43.2413 42.3C42.7713 42.3 42.6213 42.16 42.0913 42.16C41.5613 42.16 41.4013 42.29 40.9313 42.3C40.4613 42.31 40.1313 42.07 39.8513 41.87C39.2813 41.44 38.9213 40.69 39.5813 40.2ZM63.0113 47.8V54.71C63.0113 58.94 58.0013 58.95 54.6213 59.01H37.3913C34.0213 58.94 29.0113 58.93 29.0113 54.7V47.81C29.0113 47.79 29.0313 47.79 29.0413 47.8C29.5913 48.53 30.6113 49.2 32.5113 49.61C33.7413 49.87 35.2113 50 37.0113 50H54.9913C56.7913 50 58.2713 49.87 59.5013 49.61C61.4113 49.2 62.4313 48.52 62.9713 47.78C62.9913 47.77 63.0113 47.78 63.0113 47.8V47.8Z" fill="#1D1D1F"/>
<path fill-rule="evenodd" clip-rule="evenodd" d="M65.5163 23.2666C65.8057 23.2668 66.0861 23.3669 66.3101 23.55L67.0113 24.1242L69.0113 25.7642V30.96C69.011 31.2409 68.8992 31.5102 68.7004 31.7087C68.5016 31.9072 68.2322 32.0186 67.9513 32.0184H63.0713C62.7904 32.0186 62.5209 31.9072 62.3221 31.7087C62.1234 31.5102 62.0115 31.2409 62.0113 30.96V25.772L64.0113 24.132L64.7222 23.549C64.9464 23.3662 65.227 23.2664 65.5163 23.2666ZM64.0113 26.7157V30.0223H67.0113V26.7079L65.5162 25.4819L64.0113 26.7157ZM65.512 16.4731C65.9852 16.4733 66.4429 16.6418 66.8033 16.9484L70.3986 19.9839L74.0113 23.0339V34.9558C74.0111 35.2182 73.9592 35.478 73.8585 35.7204C73.7579 35.9627 73.6105 36.1828 73.4248 36.3682C73.2391 36.5536 73.0186 36.7006 72.7761 36.8008C72.5336 36.9009 72.2737 36.9524 72.0113 36.9521H63.5213L63.2825 35.98C63.1618 35.5272 63.0702 35.2093 62.9902 34.9558H72.0113V23.96L69.6663 21.9799L68.7576 21.2128C68.6816 21.1225 68.5909 21.0459 68.4892 20.9861L67.3018 19.9837L65.5113 18.4719L63.7213 19.9837L62.5334 20.9862C62.4317 21.046 62.3409 21.1226 62.265 21.2129L61.3563 21.98L59.0113 23.96V32.2399C58.9718 32.2331 58.9322 32.2265 58.8925 32.22C58.3281 32.1357 57.6845 32.085 57.0113 32.0541V23.0338L60.6241 19.9837L64.2203 16.9474C64.5809 16.641 65.0388 16.4729 65.512 16.4731ZM54.0113 32.0023V21.3032L60.402 16.0482L62.8297 14.0519L65.1928 12.1088C65.2826 12.0353 65.3951 11.9951 65.5112 11.9951C65.6273 11.9951 65.7398 12.0353 65.8296 12.1088L68.1927 14.0519L70.6204 16.0482L77.0113 21.3032V38.756C77.0107 39.0871 76.8787 39.4045 76.6444 39.6384C76.41 39.8723 76.0924 40.0037 75.7613 40.0037H64.2708L64.7611 42H75.7613C76.1877 42.0004 76.61 41.9168 77.0041 41.754C77.3982 41.5912 77.7563 41.3523 78.0581 41.0511C78.3599 40.7499 78.5994 40.3922 78.763 39.9984C78.9265 39.6046 79.0109 39.1824 79.0113 38.756V22.9477L81.8756 25.303C81.9768 25.3865 82.0934 25.4492 82.2188 25.4876C82.3443 25.526 82.4761 25.5394 82.6066 25.5268C82.7372 25.5143 82.8641 25.4762 82.9799 25.4147C83.0958 25.3531 83.1983 25.2694 83.2818 25.1682C83.3653 25.067 83.428 24.9503 83.4664 24.8249C83.5049 24.6995 83.5182 24.5677 83.5057 24.4371C83.4931 24.3065 83.455 24.1797 83.3935 24.0638C83.3319 23.948 83.2482 23.8454 83.147 23.7619H83.1469L79.0113 20.3612V14.5512C79.0112 14.4528 78.9917 14.3554 78.954 14.2645C78.9162 14.1736 78.861 14.0911 78.7913 14.0216C78.7217 13.9521 78.639 13.897 78.5481 13.8594C78.4571 13.8218 78.3597 13.8025 78.2613 13.8026H76.2613C76.0638 13.8064 75.8754 13.8864 75.7356 14.0259C75.5958 14.1655 75.5154 14.3537 75.5113 14.5512V17.4834L73.7662 16.0484L71.3385 14.0521L67.1013 10.5677C66.6528 10.2005 66.0909 9.99988 65.5113 9.99988C64.9316 9.99988 64.3698 10.2005 63.9213 10.5677L59.684 14.0519L57.2563 16.0482L54.0113 18.7166L52.0113 20.3612L47.8757 23.7619C47.6713 23.9305 47.5423 24.1734 47.517 24.4371C47.4917 24.7008 47.5722 24.9638 47.7408 25.1682C47.9094 25.3725 48.1523 25.5015 48.416 25.5268C48.6798 25.5521 48.9427 25.4716 49.1471 25.303L52.0113 22.9477V32H53.5125C53.6753 32.001 53.8418 32.0016 54.0113 32.0023Z" fill="#1D1D1F"/>
</svg>
