<svg width="112" height="72" viewBox="0 0 112 72" fill="none" xmlns="http://www.w3.org/2000/svg">
<path d="M56.0508 44.3359C55.2956 44.3359 54.5339 44.5443 53.7656 44.9609C52.9974 45.3646 52.1836 45.8724 51.3242 46.4844C50.4779 47.0964 49.5534 47.7083 48.5508 48.3203C47.5612 48.9323 46.4674 49.4466 45.2695 49.8633C44.0846 50.2799 42.763 50.4883 41.3047 50.4883C39.5469 50.4883 37.9193 50.1172 36.4219 49.375C34.9245 48.6328 33.6159 47.5911 32.4961 46.25C31.3893 44.8958 30.5234 43.3203 29.8984 41.5234C29.2865 39.7266 28.9805 37.7734 28.9805 35.6641C28.9805 32.9167 29.4362 30.625 30.3477 28.7891C31.2591 26.9401 32.5417 25.4557 34.1953 24.3359C35.849 23.2161 37.8021 22.3698 40.0547 21.7969C42.3073 21.224 44.7878 20.8464 47.4961 20.6641C50.2044 20.4688 53.056 20.3711 56.0508 20.3711C59.0326 20.3711 61.8711 20.4688 64.5664 20.6641C67.2747 20.8464 69.7552 21.224 72.0078 21.7969C74.2734 22.3568 76.2331 23.1966 77.8867 24.3164C79.5404 25.4362 80.8164 26.9206 81.7148 28.7695C82.6263 30.6055 83.082 32.9036 83.082 35.6641C83.082 37.7734 82.776 39.7266 82.1641 41.5234C81.5521 43.3203 80.6862 44.8958 79.5664 46.25C78.4466 47.5911 77.138 48.6328 75.6406 49.375C74.1432 50.1172 72.5156 50.4883 70.7578 50.4883C69.2995 50.4883 67.9714 50.2799 66.7734 49.8633C65.5885 49.4466 64.4948 48.9323 63.4922 48.3203C62.5026 47.7083 61.5781 47.0964 60.7188 46.4844C59.8724 45.8724 59.0651 45.3646 58.2969 44.9609C57.5286 44.5443 56.7799 44.3359 56.0508 44.3359ZM56.0508 41.9336C57.0664 41.9336 58.0169 42.1419 58.9023 42.5586C59.8008 42.9622 60.6732 43.4701 61.5195 44.082C62.3659 44.694 63.2448 45.306 64.1562 45.918C65.0677 46.5299 66.0573 47.0443 67.125 47.4609C68.2057 47.8776 69.4167 48.0859 70.7578 48.0859C72.737 48.0859 74.4688 47.5716 75.9531 46.543C77.4505 45.5143 78.6094 44.0755 79.4297 42.2266C80.263 40.3646 80.6797 38.1771 80.6797 35.6641C80.6797 33.3333 80.2956 31.3867 79.5273 29.8242C78.7721 28.2617 77.6784 27.0117 76.2461 26.0742C74.8138 25.1367 73.082 24.4336 71.0508 23.9648C69.0326 23.4831 66.7604 23.1641 64.2344 23.0078C61.7083 22.8516 58.9805 22.7734 56.0508 22.7734C53.0951 22.7734 50.3542 22.8516 47.8281 23.0078C45.3021 23.1641 43.0234 23.4831 40.9922 23.9648C38.974 24.4336 37.2487 25.1367 35.8164 26.0742C34.3841 27.0117 33.2839 28.2617 32.5156 29.8242C31.7604 31.3867 31.3828 33.3333 31.3828 35.6641C31.3828 38.1771 31.793 40.3646 32.6133 42.2266C33.4466 44.0755 34.612 45.5143 36.1094 46.543C37.6068 47.5716 39.3385 48.0859 41.3047 48.0859C42.6458 48.0859 43.8503 47.8776 44.918 47.4609C45.9987 47.0443 46.9948 46.5299 47.9062 45.918C48.8177 45.306 49.6966 44.694 50.543 44.082C51.3893 43.4701 52.2552 42.9622 53.1406 42.5586C54.0391 42.1419 55.0091 41.9336 56.0508 41.9336Z" fill="black"/>
</svg>
