<?xml version="1.0" standalone="no"?>
<!DOCTYPE svg PUBLIC "-//W3C//DTD SVG 20010904//EN"
 "http://www.w3.org/TR/2001/REC-SVG-20010904/DTD/svg10.dtd">
<svg version="1.0" xmlns="http://www.w3.org/2000/svg"
 width="640.000000pt" height="640.000000pt" viewBox="0 0 640.000000 640.000000"
 preserveAspectRatio="xMidYMid meet">
<metadata>
Created by potrace 1.14, written by Peter Selinger 2001-2017
</metadata>
<g transform="translate(0.000000,640.000000) scale(0.100000,-0.100000)"
fill="#000000" stroke="none">
<path d="M0 3200 l0 -3200 3200 0 3200 0 0 3200 0 3200 -3200 0 -3200 0 0
-3200z m4339 2336 c802 -148 1408 -779 1491 -1552 8 -79 10 -510 8 -1561 l-3
-1451 -30 -44 c-18 -25 -49 -53 -75 -66 -91 -47 -212 -11 -265 78 -20 35 -20
46 -25 1535 -7 1658 -1 1530 -70 1737 -145 435 -529 787 -983 903 -642 163
-1311 -145 -1609 -740 -48 -94 -84 -198 -114 -325 -16 -67 -18 -158 -23 -867
l-6 -791 -30 -44 c-87 -125 -274 -113 -342 22 l-23 44 0 751 c0 585 3 773 14
855 95 710 636 1307 1344 1484 84 21 138 31 277 50 65 9 384 -3 464 -18z
m-186 -2972 c24 -17 52 -48 65 -74 l22 -45 -2 -737 -3 -736 -30 -44 c-87 -125
-274 -113 -343 22 l-22 45 2 737 3 736 30 44 c64 92 187 115 278 52z m800 0
c24 -17 52 -48 65 -74 l22 -45 -2 -737 -3 -736 -30 -44 c-87 -125 -274 -113
-343 22 l-22 45 2 737 3 736 30 44 c64 92 187 115 278 52z m-4081 -20 c66 -46
80 -80 90 -213 19 -264 87 -460 225 -646 158 -213 387 -350 653 -390 383 -59
745 87 974 392 138 184 205 377 224 646 8 107 11 122 38 160 86 124 272 111
342 -23 22 -42 23 -53 19 -170 -24 -583 -374 -1101 -888 -1314 -308 -127 -686
-140 -1003 -34 -121 40 -289 127 -389 201 -356 261 -587 714 -591 1159 -1 136
-1 136 29 180 64 91 188 115 277 52z"/>
</g>
</svg>
